<svg width="175" height="50" viewBox="0 0 175 50" fill="none" xmlns="http://www.w3.org/2000/svg">
<path d="M65.522 39.38C64.8633 39.38 64.3313 39.2027 63.926 38.848C63.546 38.4933 63.356 37.9993 63.356 37.366V21.178C63.356 18.3153 64.1667 16.0733 65.788 14.452C67.4347 12.8307 69.6767 12.02 72.514 12.02C73.958 12.02 75.3133 12.3873 76.58 13.122C77.872 13.8567 78.9233 14.87 79.734 16.162C80.5447 14.8447 81.5833 13.8313 82.85 13.122C84.1167 12.3873 85.51 12.02 87.03 12.02C89.8927 12.02 92.122 12.8307 93.718 14.452C95.3393 16.0733 96.15 18.3153 96.15 21.178V37.366C96.15 37.974 95.9473 38.468 95.542 38.848C95.162 39.2027 94.6427 39.38 93.984 39.38C93.3253 39.38 92.7933 39.2027 92.388 38.848C92.008 38.4933 91.818 37.9993 91.818 37.366V21.178C91.818 19.2273 91.4253 17.796 90.64 16.884C89.88 15.972 88.626 15.516 86.878 15.516C85.282 15.516 84.0533 16.01 83.192 16.998C82.3307 17.986 81.9 19.3793 81.9 21.178V37.366C81.9 37.9993 81.6973 38.4933 81.292 38.848C80.912 39.2027 80.3927 39.38 79.734 39.38C79.0753 39.38 78.556 39.2027 78.176 38.848C77.8213 38.4933 77.644 37.9993 77.644 37.366V21.178C77.644 19.4047 77.2007 18.024 76.314 17.036C75.4273 16.0227 74.2113 15.516 72.666 15.516C70.8927 15.516 69.6133 15.972 68.828 16.884C68.068 17.796 67.688 19.2273 67.688 21.178V37.366C67.688 37.974 67.4853 38.468 67.08 38.848C66.7 39.2027 66.1807 39.38 65.522 39.38ZM107.942 39.38C105.535 39.38 103.61 38.81 102.166 37.67C100.722 36.53 99.9996 35.01 99.9996 33.11C99.9996 31.2353 100.76 29.7407 102.28 28.626C103.825 27.5113 105.902 26.954 108.512 26.954C111.045 26.954 113.021 27.5367 114.44 28.702V27.258C114.44 25.9913 114.034 25.0287 113.224 24.37C112.438 23.686 111.273 23.344 109.728 23.344C107.549 23.344 105.674 23.8253 104.104 24.788C103.572 25.092 103.09 25.244 102.66 25.244C102.204 25.244 101.786 25.0413 101.406 24.636C101.152 24.3573 101.026 24.028 101.026 23.648C101.026 23.04 101.292 22.5587 101.824 22.204C102.736 21.52 103.888 20.988 105.282 20.608C106.675 20.2027 108.132 20 109.652 20C112.514 20 114.756 20.646 116.378 21.938C117.999 23.23 118.81 25.016 118.81 27.296V37.48C118.81 38.0627 118.62 38.5313 118.24 38.886C117.86 39.2153 117.34 39.38 116.682 39.38C116.023 39.38 115.504 39.2153 115.124 38.886C114.769 38.5567 114.592 38.1007 114.592 37.518V36.796C113.097 38.5187 110.88 39.38 107.942 39.38ZM108.854 36.264C110.576 36.264 111.944 35.9853 112.958 35.428C113.971 34.8453 114.478 34.06 114.478 33.072C114.478 32.1093 113.984 31.3493 112.996 30.792C112.008 30.2347 110.652 29.956 108.93 29.956C107.435 29.956 106.27 30.2347 105.434 30.792C104.623 31.3493 104.218 32.122 104.218 33.11C104.218 34.1233 104.61 34.9087 105.396 35.466C106.206 35.998 107.359 36.264 108.854 36.264ZM131.449 39.38C130.03 39.38 128.827 38.9873 127.839 38.202C126.876 37.3913 126.104 36.1627 125.521 34.516L121.265 22.47C121.214 22.3433 121.189 22.1533 121.189 21.9C121.189 21.368 121.404 20.9247 121.835 20.57C122.266 20.2153 122.836 20.038 123.545 20.038C123.976 20.038 124.343 20.1393 124.647 20.342C124.976 20.5447 125.204 20.8233 125.331 21.178L129.777 33.832C130.03 34.6173 130.284 35.1747 130.537 35.504C130.79 35.808 131.094 35.96 131.449 35.96C131.804 35.96 132.108 35.808 132.361 35.504C132.614 35.1747 132.868 34.6173 133.121 33.832L137.567 21.178C137.694 20.8233 137.909 20.5447 138.213 20.342C138.517 20.1393 138.897 20.038 139.353 20.038C140.037 20.038 140.607 20.2153 141.063 20.57C141.519 20.9247 141.747 21.368 141.747 21.9C141.747 22.0773 141.709 22.2673 141.633 22.47L137.339 34.516C136.782 36.1627 136.009 37.3913 135.021 38.202C134.058 38.9873 132.868 39.38 131.449 39.38ZM148.023 17.074C147.213 17.074 146.541 16.846 146.009 16.39C145.503 15.9087 145.249 15.3007 145.249 14.566C145.249 13.8313 145.503 13.236 146.009 12.78C146.541 12.2987 147.213 12.058 148.023 12.058C148.834 12.058 149.505 12.2987 150.037 12.78C150.569 13.236 150.835 13.8313 150.835 14.566C150.835 15.3007 150.569 15.9087 150.037 16.39C149.505 16.846 148.834 17.074 148.023 17.074ZM148.023 39.38C147.365 39.38 146.845 39.2027 146.465 38.848C146.111 38.4933 145.933 37.9993 145.933 37.366V22.014C145.933 21.3807 146.111 20.8867 146.465 20.532C146.845 20.1773 147.365 20 148.023 20C148.682 20 149.201 20.1773 149.581 20.532C149.987 20.8867 150.189 21.3807 150.189 22.014V37.366C150.189 37.9993 149.987 38.4933 149.581 38.848C149.201 39.2027 148.682 39.38 148.023 39.38ZM172.453 36.264C172.807 36.6693 172.985 37.1 172.985 37.556C172.985 38.088 172.757 38.544 172.301 38.924C171.946 39.228 171.566 39.38 171.161 39.38C170.578 39.38 170.033 39.114 169.527 38.582L163.675 32.236L157.823 38.582C157.316 39.0887 156.771 39.342 156.189 39.342C155.707 39.342 155.315 39.2027 155.011 38.924C154.58 38.5693 154.365 38.1133 154.365 37.556C154.365 37.0493 154.542 36.6187 154.897 36.264L161.129 29.5L155.353 23.23C154.947 22.774 154.745 22.2927 154.745 21.786C154.745 21.2287 154.96 20.7727 155.391 20.418C155.745 20.1393 156.113 20 156.493 20C157.151 20 157.747 20.2913 158.279 20.874L163.675 26.726L169.071 20.874C169.603 20.2913 170.173 20 170.781 20C171.186 20 171.566 20.1393 171.921 20.418C172.377 20.798 172.605 21.254 172.605 21.786C172.605 22.2927 172.402 22.774 171.997 23.23L166.221 29.5L172.453 36.264Z" fill="white"/>
<path d="M38.9443 6.0788L33.9443 3.45492C29.5553 1.15165 27.3608 0 25 0C22.6393 0 20.4448 1.15165 16.0558 3.45492L15.2515 3.877L37.559 16.6242L47.6008 11.6033C45.9853 9.77372 43.3788 8.40585 38.9443 6.0788Z" fill="#9FE870"/>
<path d="M49.371 14.9106L39.375 19.9086V27.4998C39.375 28.5353 38.5355 29.3748 37.5 29.3748C36.4645 29.3748 35.625 28.5353 35.625 27.4998V21.7835L26.875 26.1585V49.7598C28.6697 49.3128 30.712 48.241 33.9442 46.5448L38.9442 43.921C44.3235 41.098 47.013 39.6868 48.5065 37.1505C50 34.6143 50 31.458 50 25.146V24.8535C50 20.122 50 17.1637 49.371 14.9106Z" fill="#9FE870"/>
<path d="M23.125 49.7598V26.1585L0.6291 14.9106C2.23517e-07 17.1637 0 20.122 0 24.8535V25.146C0 31.458 -1.49012e-07 34.6143 1.4935 37.1505C2.98697 39.6868 5.67655 41.098 11.0557 43.921L16.0557 46.5448C19.2881 48.241 21.3302 49.3128 23.125 49.7598Z" fill="#9FE870"/>
<path d="M2.39917 11.6035L24.9999 22.9039L33.5279 18.6399L11.3113 5.94482L11.0557 6.079C6.62132 8.40605 4.01469 9.77392 2.39917 11.6035Z" fill="#9FE870"/>
</svg>
